REM DIRINDEX 1\2,1\3\7,1\3\8,1\4\9,1\4\10,1\4\11,1\5\12,1\5\13,1\5\14,1\6\15,1\6\16,1\6\17
REM DIRNAME "folder01","folder02","folder03","folder04","folder05","folder06","folder07","folder08","folder09","folder10","folder11","folder12","folder13","folder14","folder15","folder16","folder17"
TITLE ""
FILE "2Q_j_1677-1690.mp3" MP3
  TRACK 01 AUDIO
    TITLE "9:cjc174_1251"
    INDEX 01 00:00:00
  TRACK 02 AUDIO
    TITLE "0:"
    INDEX 01 00:01:33
  TRACK 03 AUDIO
    TITLE "10:cjc174_1252"
    INDEX 01 00:02:07
  TRACK 04 AUDIO
    TITLE "0:"
    INDEX 01 00:04:37
  TRACK 05 AUDIO
    TITLE "11:cjc174_1253"
    INDEX 01 00:05:10
  TRACK 06 AUDIO
    TITLE "0:"
    INDEX 01 00:08:24
  TRACK 07 AUDIO
    TITLE "9:cjc174_1254"
    INDEX 01 00:08:69
  TRACK 08 AUDIO
    TITLE "0:"
    INDEX 01 00:10:26
  TRACK 09 AUDIO
    TITLE "10:cjc174_1255"
    INDEX 01 00:10:73
  TRACK 10 AUDIO
    TITLE "0:"
    INDEX 01 00:12:23
  TRACK 11 AUDIO
    TITLE "11:cjc174_1256"
    INDEX 01 00:12:68
  TRACK 12 AUDIO
    TITLE "0:"
    INDEX 01 00:15:18
  TRACK 13 AUDIO
    TITLE "9:cjc174_1257"
    INDEX 01 00:15:65
  TRACK 14 AUDIO
    TITLE "0:"
    INDEX 01 00:17:13
  TRACK 15 AUDIO
    TITLE "10:cjc174_1258"
    INDEX 01 00:17:58
  TRACK 16 AUDIO
    TITLE "0:"
    INDEX 01 00:19:63
  TRACK 17 AUDIO
    TITLE "11:cjc174_1259"
    INDEX 01 00:20:31
  TRACK 18 AUDIO
    TITLE "0:"
    INDEX 01 00:24:09
  TRACK 19 AUDIO
    TITLE "9:cjc174_1260"
    INDEX 01 00:24:56
  TRACK 20 AUDIO
    TITLE "0:"
    INDEX 01 00:25:63
  TRACK 21 AUDIO
    TITLE "10:cjc174_1261"
    INDEX 01 00:26:45
  TRACK 22 AUDIO
    TITLE "0:"
    INDEX 01 00:31:01
  TRACK 23 AUDIO
    TITLE "11:cjc174_1262"
    INDEX 01 00:31:46
  TRACK 24 AUDIO
    TITLE "0:"
    INDEX 01 00:35:24
  TRACK 25 AUDIO
    TITLE "9:cjc174_1263"
    INDEX 01 00:35:73
  TRACK 26 AUDIO
    TITLE "0:"
    INDEX 01 00:36:69
  TRACK 27 AUDIO
    TITLE "10:cjc174_1264"
    INDEX 01 00:37:53
  TRACK 28 AUDIO
    TITLE "0:"
    INDEX 01 00:39:36
  TRACK 29 AUDIO
    TITLE "11:cjc174_1265"
    INDEX 01 00:40:06
  TRACK 30 AUDIO
    TITLE "0:"
    INDEX 01 00:43:71
  TRACK 31 AUDIO
    TITLE "9:cjc174_1266"
    INDEX 01 00:44:43
  TRACK 32 AUDIO
    TITLE "0:"
    INDEX 01 00:46:18
  TRACK 33 AUDIO
    TITLE "10:cjc174_1267"
    INDEX 01 00:46:63
  TRACK 34 AUDIO
    TITLE "0:"
    INDEX 01 00:48:33
  TRACK 35 AUDIO
    TITLE "11:cjc174_1268"
    INDEX 01 00:49:05
  TRACK 36 AUDIO
    TITLE "0:"
    INDEX 01 00:51:74
  TRACK 37 AUDIO
    TITLE "9:cjc174_1269"
    INDEX 01 00:52:48
  TRACK 38 AUDIO
    TITLE "0:"
    INDEX 01 00:53:57
  TRACK 39 AUDIO
    TITLE "10:cjc174_1270"
    INDEX 01 00:54:41
  TRACK 40 AUDIO
    TITLE "0:"
    INDEX 01 00:59:03
  TRACK 41 AUDIO
    TITLE "11:cjc174_1271"
    INDEX 01 00:59:48
  TRACK 42 AUDIO
    TITLE "0:"
    INDEX 01 01:04:51
  TRACK 43 AUDIO
    TITLE "9:cjc174_1272"
    INDEX 01 01:05:25
  TRACK 44 AUDIO
    TITLE "0:"
    INDEX 01 01:06:54
  TRACK 45 AUDIO
    TITLE "10:cjc174_1273"
    INDEX 01 01:07:24
  TRACK 46 AUDIO
    TITLE "0:"
    INDEX 01 01:10:31
  TRACK 47 AUDIO
    TITLE "11:cjc174_1274"
    INDEX 01 01:10:74
  TRACK 48 AUDIO
    TITLE "0:"
    INDEX 01 01:16:19
  TRACK 49 AUDIO
    TITLE "9:cjc174_1275"
    INDEX 01 01:16:64
  TRACK 50 AUDIO
    TITLE "0:"
    INDEX 01 01:18:10
  TRACK 51 AUDIO
    TITLE "10:cjc174_1276"
    INDEX 01 01:18:55
  TRACK 52 AUDIO
    TITLE "0:"
    INDEX 01 01:19:59
  TRACK 53 AUDIO
    TITLE "11:cjc174_1277"
    INDEX 01 01:20:29
  TRACK 54 AUDIO
    TITLE "0:"
    INDEX 01 01:25:07
  TRACK 55 AUDIO
    TITLE "9:cjc174_1278"
    INDEX 01 01:25:54
  TRACK 56 AUDIO
    TITLE "0:"
    INDEX 01 01:26:59
  TRACK 57 AUDIO
    TITLE "10:cjc174_1279"
    INDEX 01 01:27:39
  TRACK 58 AUDIO
    TITLE "0:"
    INDEX 01 01:31:39
  TRACK 59 AUDIO
    TITLE "11:cjc174_1280"
    INDEX 01 01:32:07
  TRACK 60 AUDIO
    TITLE "0:"
    INDEX 01 01:35:30
  TRACK 61 AUDIO
    TITLE "9:cjc174_1281"
    INDEX 01 01:36:01
  TRACK 62 AUDIO
    TITLE "0:"
    INDEX 01 01:37:57
  TRACK 63 AUDIO
    TITLE "10:cjc174_1282"
    INDEX 01 01:38:29
  TRACK 64 AUDIO
    TITLE "0:"
    INDEX 01 01:42:72
  TRACK 65 AUDIO
    TITLE "11:cjc174_1283"
    INDEX 01 01:43:44
  TRACK 66 AUDIO
    TITLE "0:"
    INDEX 01 01:47:39
  TRACK 67 AUDIO
    TITLE "9:cjc174_1284"
    INDEX 01 01:48:10
  TRACK 68 AUDIO
    TITLE "0:"
    INDEX 01 01:49:60
  TRACK 69 AUDIO
    TITLE "10:cjc174_1285"
    INDEX 01 01:50:30
  TRACK 70 AUDIO
    TITLE "0:"
    INDEX 01 01:52:49
  TRACK 71 AUDIO
    TITLE "11:cjc174_1286"
    INDEX 01 01:53:17
  TRACK 72 AUDIO
    TITLE "0:"
    INDEX 01 01:56:58
  TRACK 73 AUDIO
    TITLE "9:cjc174_1287"
    INDEX 01 01:57:28
  TRACK 74 AUDIO
    TITLE "0:"
    INDEX 01 01:58:51
  TRACK 75 AUDIO
    TITLE "10:cjc174_1288"
    INDEX 01 01:59:23
  TRACK 76 AUDIO
    TITLE "0:"
    INDEX 01 02:04:05
  TRACK 77 AUDIO
    TITLE "11:cjc174_1289"
    INDEX 01 02:04:50
  TRACK 78 AUDIO
    TITLE "0:"
    INDEX 01 02:07:60
  TRACK 79 AUDIO
    TITLE "9:cjc174_1290"
    INDEX 01 02:08:30
  TRACK 80 AUDIO
    TITLE "0:"
    INDEX 01 02:10:25
  TRACK 81 AUDIO
    TITLE "10:cjc174_1291"
    INDEX 01 02:11:01
  TRACK 82 AUDIO
    TITLE "0:"
    INDEX 01 02:12:75
  TRACK 83 AUDIO
    TITLE "11:cjc174_1292"
    INDEX 01 02:13:45
  TRACK 84 AUDIO
    TITLE "0:"
    INDEX 01 02:17:05
